<?xml version="1.0" standalone="no"?>
<!DOCTYPE svg PUBLIC "-//W3C//DTD SVG 20010904//EN"
 "http://www.w3.org/TR/2001/REC-SVG-20010904/DTD/svg10.dtd">
<svg version="1.0" xmlns="http://www.w3.org/2000/svg"
 width="256.000000pt" height="256.000000pt" viewBox="0 0 256.000000 256.000000"
 preserveAspectRatio="xMidYMid meet">
<metadata>
Created by potrace 1.14, written by Peter Selinger 2001-2017
</metadata>
<g transform="translate(0.000000,256.000000) scale(0.100000,-0.100000)"
fill="#000000" stroke="none">
<path d="M0 1486 l0 -902 67 0 c59 1 69 4 73 21 4 14 14 20 35 20 l30 -1 0
-119 0 -120 103 -3 c71 -2 102 -6 103 -15 0 -7 1 -52 2 -102 l2 -90 1073 -1
1072 -2 -2 902 -3 901 -117 -1 c-65 0 -118 2 -119 5 0 4 -2 17 -5 29 -3 18 1
25 16 29 11 3 20 8 21 12 0 3 1 34 2 69 l2 62 -85 1 c-47 1 -94 2 -105 3 -18
1 -19 9 -20 101 l0 100 -1072 2 -1073 1 0 -902z"/>
</g>
</svg>
